<mxfile host="65bd71144e">
    <diagram id="vP8HRYV40l1JKufZO04F" name="Page-1">
        <mxGraphModel dx="-1268" dy="439" grid="1" gridSize="10" guides="1" tooltips="1" connect="1" arrows="1" fold="1" page="0" pageScale="1" pageWidth="827" pageHeight="1169" math="0" shadow="0">
            <root>
                <mxCell id="0"/>
                <mxCell id="1" parent="0"/>
                <mxCell id="86" value="" style="whiteSpace=wrap;html=1;fillColor=#0000CC;" vertex="1" parent="1">
                    <mxGeometry x="2176" y="320" width="180" height="157" as="geometry"/>
                </mxCell>
                <mxCell id="102" style="edgeStyle=none;html=1;exitX=0.25;exitY=0.889;exitDx=0;exitDy=0;exitPerimeter=0;strokeWidth=2;" edge="1" parent="1" source="245" target="99">
                    <mxGeometry relative="1" as="geometry">
                        <mxPoint x="2220" y="630" as="sourcePoint"/>
                    </mxGeometry>
                </mxCell>
                <mxCell id="103" style="edgeStyle=none;html=1;entryX=0.57;entryY=0.009;entryDx=0;entryDy=0;entryPerimeter=0;exitX=0.5;exitY=0.865;exitDx=0;exitDy=0;exitPerimeter=0;strokeWidth=2;" edge="1" parent="1" source="245" target="100">
                    <mxGeometry relative="1" as="geometry">
                        <mxPoint x="2265.412189670312" y="645" as="sourcePoint"/>
                    </mxGeometry>
                </mxCell>
                <mxCell id="104" style="edgeStyle=none;html=1;entryX=0.432;entryY=0.056;entryDx=0;entryDy=0;entryPerimeter=0;fontStyle=0;strokeWidth=2;" edge="1" parent="1" target="101">
                    <mxGeometry relative="1" as="geometry">
                        <mxPoint x="2420" y="720" as="targetPoint"/>
                        <mxPoint x="2320" y="620" as="sourcePoint"/>
                    </mxGeometry>
                </mxCell>
                <mxCell id="94" style="edgeStyle=none;html=1;entryX=0.5;entryY=0;entryDx=0;entryDy=0;entryPerimeter=0;strokeWidth=2;" edge="1" parent="1" source="89" target="93">
                    <mxGeometry relative="1" as="geometry">
                        <mxPoint x="2117" y="830" as="targetPoint"/>
                    </mxGeometry>
                </mxCell>
                <mxCell id="89" value="&lt;font color=&quot;#ffffff&quot; style=&quot;font-size: 14px;&quot;&gt;&lt;b&gt;MaskGenerator&lt;/b&gt;&lt;/font&gt;" style="strokeWidth=2;html=1;shape=mxgraph.flowchart.stored_data;whiteSpace=wrap;fillColor=#99004D;" vertex="1" parent="1">
                    <mxGeometry x="2032" y="720" width="160" height="80" as="geometry"/>
                </mxCell>
                <mxCell id="96" style="edgeStyle=none;html=1;entryX=0.5;entryY=0;entryDx=0;entryDy=0;entryPerimeter=0;strokeWidth=2;" edge="1" parent="1" source="90" target="95">
                    <mxGeometry relative="1" as="geometry">
                        <mxPoint x="2259" y="830" as="targetPoint"/>
                    </mxGeometry>
                </mxCell>
                <mxCell id="90" value="&lt;font color=&quot;#ffffff&quot; style=&quot;font-size: 14px;&quot;&gt;&lt;b&gt;MaskImputator&lt;/b&gt;&lt;/font&gt;" style="strokeWidth=2;html=1;shape=mxgraph.flowchart.stored_data;whiteSpace=wrap;fillColor=#990000;" vertex="1" parent="1">
                    <mxGeometry x="2187" y="720" width="156" height="80" as="geometry"/>
                </mxCell>
                <mxCell id="98" style="edgeStyle=none;html=1;entryX=0.5;entryY=0;entryDx=0;entryDy=0;entryPerimeter=0;strokeWidth=2;" edge="1" parent="1" source="91" target="97">
                    <mxGeometry relative="1" as="geometry">
                        <mxPoint x="2407" y="830" as="targetPoint"/>
                    </mxGeometry>
                </mxCell>
                <mxCell id="91" value="&lt;font color=&quot;#ffffff&quot; style=&quot;font-size: 14px;&quot;&gt;&lt;b&gt;OneStepTransformer&lt;/b&gt;&lt;/font&gt;" style="strokeWidth=2;html=1;shape=mxgraph.flowchart.stored_data;whiteSpace=wrap;fillColor=#660000;" vertex="1" parent="1">
                    <mxGeometry x="2338" y="720" width="160" height="80" as="geometry"/>
                </mxCell>
                <mxCell id="93" value="" style="strokeWidth=2;html=1;shape=mxgraph.flowchart.multi-document;whiteSpace=wrap;fillColor=#99004D;" vertex="1" parent="1">
                    <mxGeometry x="2049.75" y="835" width="125" height="85" as="geometry"/>
                </mxCell>
                <mxCell id="95" value="" style="strokeWidth=2;html=1;shape=mxgraph.flowchart.multi-document;whiteSpace=wrap;fillColor=#990000;" vertex="1" parent="1">
                    <mxGeometry x="2201.5" y="835" width="125" height="85" as="geometry"/>
                </mxCell>
                <mxCell id="97" value="" style="strokeWidth=2;html=1;shape=mxgraph.flowchart.multi-document;whiteSpace=wrap;fillColor=#660000;" vertex="1" parent="1">
                    <mxGeometry x="2356" y="835" width="125" height="85" as="geometry"/>
                </mxCell>
                <mxCell id="99" value="&lt;font color=&quot;#ffffff&quot;&gt;&amp;lt;&amp;lt;abstract&amp;gt;&amp;gt;&lt;/font&gt;" style="text;html=1;align=center;verticalAlign=middle;resizable=0;points=[];autosize=1;strokeColor=none;fillColor=none;" vertex="1" parent="1">
                    <mxGeometry x="2072" y="715" width="90" height="30" as="geometry"/>
                </mxCell>
                <mxCell id="100" value="&lt;font color=&quot;#ffffff&quot;&gt;&amp;lt;&amp;lt;abstract&amp;gt;&amp;gt;&lt;/font&gt;" style="text;html=1;align=center;verticalAlign=middle;resizable=0;points=[];autosize=1;strokeColor=none;fillColor=none;" vertex="1" parent="1">
                    <mxGeometry x="2214" y="715" width="90" height="30" as="geometry"/>
                </mxCell>
                <mxCell id="101" value="&lt;font color=&quot;#ffffff&quot;&gt;&amp;lt;&amp;lt;abstract&amp;gt;&amp;gt;&lt;/font&gt;" style="text;html=1;align=center;verticalAlign=middle;resizable=0;points=[];autosize=1;strokeColor=none;fillColor=none;" vertex="1" parent="1">
                    <mxGeometry x="2363" y="715" width="90" height="30" as="geometry"/>
                </mxCell>
                <mxCell id="105" value="uses" style="text;html=1;align=center;verticalAlign=middle;resizable=0;points=[];autosize=1;strokeColor=none;fillColor=none;" vertex="1" parent="1">
                    <mxGeometry x="2113" y="660" width="50" height="30" as="geometry"/>
                </mxCell>
                <mxCell id="106" value="uses" style="text;html=1;align=center;verticalAlign=middle;resizable=0;points=[];autosize=1;strokeColor=none;fillColor=none;" vertex="1" parent="1">
                    <mxGeometry x="2224" y="660" width="50" height="30" as="geometry"/>
                </mxCell>
                <mxCell id="107" value="uses" style="text;html=1;align=center;verticalAlign=middle;resizable=0;points=[];autosize=1;strokeColor=none;fillColor=none;" vertex="1" parent="1">
                    <mxGeometry x="2363" y="660" width="50" height="30" as="geometry"/>
                </mxCell>
                <mxCell id="87" value="&lt;font color=&quot;#ffffff&quot; style=&quot;font-size: 14px;&quot;&gt;&lt;b&gt;Data Handler&lt;/b&gt;&lt;/font&gt;" style="text;html=1;align=center;verticalAlign=middle;resizable=0;points=[];autosize=1;strokeColor=none;fillColor=none;" vertex="1" parent="1">
                    <mxGeometry x="2211" y="320" width="110" height="30" as="geometry"/>
                </mxCell>
                <mxCell id="252" style="edgeStyle=none;html=1;fontSize=13;fontColor=#000000;exitX=0.25;exitY=1;exitDx=0;exitDy=0;entryX=0.279;entryY=0.1;entryDx=0;entryDy=0;entryPerimeter=0;strokeWidth=2;" edge="1" parent="1" source="86" target="245">
                    <mxGeometry relative="1" as="geometry">
                        <mxPoint x="2220" y="480" as="sourcePoint"/>
                        <mxPoint x="2221" y="530" as="targetPoint"/>
                    </mxGeometry>
                </mxCell>
                <mxCell id="237" value="" style="rounded=1;whiteSpace=wrap;html=1;fontSize=14;fillColor=#000099;rotation=90;" vertex="1" parent="1">
                    <mxGeometry x="2159" y="371" width="127" height="80" as="geometry"/>
                </mxCell>
                <mxCell id="83" value="&lt;font color=&quot;#ffffff&quot;&gt;&lt;b&gt;Input&lt;br&gt;Handler&lt;/b&gt;&lt;/font&gt;" style="text;html=1;align=center;verticalAlign=middle;resizable=0;points=[];autosize=1;strokeColor=none;fillColor=none;" vertex="1" parent="1">
                    <mxGeometry x="2188" y="383" width="70" height="40" as="geometry"/>
                </mxCell>
                <mxCell id="239" value="" style="rounded=1;whiteSpace=wrap;html=1;fontSize=14;fillColor=#000099;rotation=90;" vertex="1" parent="1">
                    <mxGeometry x="2246" y="371.06" width="127" height="80" as="geometry"/>
                </mxCell>
                <mxCell id="84" value="&lt;font color=&quot;#ffffff&quot;&gt;&lt;b&gt;Output&lt;br&gt;Handler&lt;/b&gt;&lt;/font&gt;" style="text;html=1;align=center;verticalAlign=middle;resizable=0;points=[];autosize=1;strokeColor=none;fillColor=none;" vertex="1" parent="1">
                    <mxGeometry x="2274" y="383" width="70" height="40" as="geometry"/>
                </mxCell>
                <mxCell id="253" style="edgeStyle=none;html=1;fontSize=13;fontColor=#000000;strokeWidth=2;" edge="1" parent="1">
                    <mxGeometry relative="1" as="geometry">
                        <mxPoint x="2320" y="480" as="targetPoint"/>
                        <mxPoint x="2320" y="540" as="sourcePoint"/>
                    </mxGeometry>
                </mxCell>
                <mxCell id="245" value="" style="verticalLabelPosition=bottom;html=1;verticalAlign=top;align=center;strokeColor=none;fillColor=#4D4D4D;shape=mxgraph.azure.autoscale;fontSize=10;" vertex="1" parent="1">
                    <mxGeometry x="2163" y="520" width="206" height="120" as="geometry"/>
                </mxCell>
                <mxCell id="246" value="&lt;font style=&quot;font-size: 15px;&quot; color=&quot;#ffffff&quot;&gt;&lt;b style=&quot;font-size: 15px;&quot;&gt;Data Cleaner&lt;/b&gt;&lt;/font&gt;" style="text;html=1;align=center;verticalAlign=middle;resizable=0;points=[];autosize=1;strokeColor=none;fillColor=none;fontSize=15;strokeWidth=1;" vertex="1" parent="1">
                    <mxGeometry x="2152" y="530" width="120" height="30" as="geometry"/>
                </mxCell>
                <mxCell id="254" value="&lt;b&gt;&lt;font color=&quot;#ffffff&quot;&gt;MG&lt;br&gt;implementations&lt;/font&gt;&lt;/b&gt;" style="text;html=1;align=center;verticalAlign=middle;resizable=0;points=[];autosize=1;strokeColor=none;fillColor=none;fontSize=13;fontColor=#000000;" vertex="1" parent="1">
                    <mxGeometry x="2039.75" y="860" width="130" height="40" as="geometry"/>
                </mxCell>
                <mxCell id="256" value="&lt;b&gt;&lt;font color=&quot;#ffffff&quot;&gt;MI&lt;br&gt;implementations&lt;/font&gt;&lt;/b&gt;" style="text;html=1;align=center;verticalAlign=middle;resizable=0;points=[];autosize=1;strokeColor=none;fillColor=none;fontSize=13;fontColor=#000000;" vertex="1" parent="1">
                    <mxGeometry x="2192" y="860" width="130" height="40" as="geometry"/>
                </mxCell>
                <mxCell id="257" value="&lt;b&gt;&lt;font color=&quot;#ffffff&quot;&gt;OST&lt;br&gt;implementations&lt;/font&gt;&lt;/b&gt;" style="text;html=1;align=center;verticalAlign=middle;resizable=0;points=[];autosize=1;strokeColor=none;fillColor=none;fontSize=13;fontColor=#000000;" vertex="1" parent="1">
                    <mxGeometry x="2346" y="860" width="130" height="40" as="geometry"/>
                </mxCell>
            </root>
        </mxGraphModel>
    </diagram>
</mxfile>